<svg width="146" height="111" viewBox="0 0 146 111" fill="none" xmlns="http://www.w3.org/2000/svg">
<g filter="url(#filter0_d_201_14852)">
<path d="M43.4755 101.259C40.4893 101.259 36.2632 102.562 33.7601 102.789L31.0767 61.7522L4 25.9363L18.9572 19.3814L48.8718 6.27146L92.3115 0L131.84 41.2428L141.572 81.4302C140.862 82.5757 136.933 81.657 135.751 81.6279C134.57 81.5988 124.138 83.4887 120.419 84.233C116.699 84.9773 109.574 84.4366 101.413 84.5703C93.2515 84.704 92.5879 83.0235 91.0279 82.3431C89.4678 81.6628 86.8134 80.9824 87.1394 82.8781C87.4596 84.7402 86.2689 84.7395 85.2225 84.7389L85.166 84.7389C84.1066 84.7389 83.8039 83.7969 82.7969 83.7271C81.7898 83.6573 81.2136 84.0237 81.0506 84.6691C80.8876 85.3146 77.5172 85.4658 76.8128 85.7856C76.1085 86.1054 73.6695 85.7682 73.3901 85.7856C73.1106 85.803 71.0732 86.1636 72.9418 86.7509C74.8104 87.3382 72.8486 88.286 72.8486 88.286C72.8486 88.286 69.3502 88.6233 69.2512 90.3097C69.1523 91.996 67.1906 92.9439 65.3977 93.7987C63.6048 94.6535 62.557 94.0196 59.1749 95.1478C55.7929 96.2759 58.2901 97.4563 53.5285 99.5148C48.7668 101.573 46.4617 101.259 43.4755 101.259Z" fill="#D0D0D0" fill-opacity="0.44" shape-rendering="crispEdges"/>
</g>
<path d="M65.6331 37.088V43.22H66.6291V37.088H65.6331ZM66.3651 39.572V40.4H68.2371V39.572H66.3651ZM59.7891 43.808V47.792H66.6291V43.808H59.7891ZM65.6571 44.612V46.976H60.7731V44.612H65.6571ZM58.7331 37.628V41.972H59.7291V37.628H58.7331ZM58.7331 41.564V42.404H59.5851C61.2051 42.404 62.8251 42.296 64.6611 41.912L64.5411 41.096C62.7651 41.456 61.1451 41.564 59.5851 41.564H58.7331ZM72.3282 42.548V44.96H73.3242V42.548H72.3282ZM77.1402 37.088V45.344H78.1362V37.088H77.1402ZM70.7322 46.88V47.696H78.4002V46.88H70.7322ZM70.7322 44.54V47.108H71.7282V44.54H70.7322ZM69.3282 42.92C71.2962 42.92 73.9242 42.884 76.2642 42.512L76.1922 41.78C73.8882 42.08 71.2002 42.104 69.1962 42.104L69.3282 42.92ZM74.9322 43.496V44.228H77.3922V43.496H74.9322ZM72.7242 37.532C71.1282 37.532 70.0482 38.276 70.0482 39.416C70.0482 40.568 71.1282 41.312 72.7242 41.312C74.3082 41.312 75.3882 40.568 75.3882 39.416C75.3882 38.276 74.3082 37.532 72.7242 37.532ZM72.7242 38.276C73.7322 38.276 74.4402 38.72 74.4402 39.416C74.4402 40.112 73.7322 40.556 72.7242 40.556C71.7042 40.556 70.9962 40.112 70.9962 39.416C70.9962 38.72 71.7042 38.276 72.7242 38.276ZM85.1912 37.28C82.8272 37.28 81.3752 38.036 81.3752 39.296C81.3752 40.556 82.8272 41.3 85.1912 41.3C87.5432 41.3 89.0072 40.556 89.0072 39.296C89.0072 38.036 87.5432 37.28 85.1912 37.28ZM85.1912 38.06C86.9192 38.06 87.9872 38.516 87.9872 39.296C87.9872 40.076 86.9192 40.532 85.1912 40.532C83.4512 40.532 82.3952 40.076 82.3952 39.296C82.3952 38.516 83.4512 38.06 85.1912 38.06ZM81.5312 43.676V47.792H88.8392V43.676H87.8552V44.864H82.5152V43.676H81.5312ZM82.5152 45.632H87.8552V46.988H82.5152V45.632ZM80.2832 42.152V42.956H90.0872V42.152H80.2832Z" fill="black"/>
<defs>
<filter id="filter0_d_201_14852" x="0" y="0" width="145.572" height="110.789" filterUnits="userSpaceOnUse" color-interpolation-filters="sRGB">
<feFlood flood-opacity="0" result="BackgroundImageFix"/>
<feColorMatrix in="SourceAlpha" type="matrix" values="0 0 0 0 0 0 0 0 0 0 0 0 0 0 0 0 0 0 127 0" result="hardAlpha"/>
<feOffset dy="4"/>
<feGaussianBlur stdDeviation="2"/>
<feComposite in2="hardAlpha" operator="out"/>
<feColorMatrix type="matrix" values="0 0 0 0 0 0 0 0 0 0 0 0 0 0 0 0 0 0 0.25 0"/>
<feBlend mode="normal" in2="BackgroundImageFix" result="effect1_dropShadow_201_14852"/>
<feBlend mode="normal" in="SourceGraphic" in2="effect1_dropShadow_201_14852" result="shape"/>
</filter>
</defs>
</svg>
