<svg width="132" height="111" viewBox="0 0 132 111" fill="none" xmlns="http://www.w3.org/2000/svg">
<g filter="url(#filter0_d_201_14853)">
<path d="M55.042 100.5C53.5984 100.704 53.9709 101.047 53.2608 102.193L43.528 62.0052L23.764 41.3838L4 20.7624L47.4397 14.4909L118.608 0L102.49 30.0751L86.2837 54.469L126.592 84.5685C126.871 84.6732 127.151 84.8662 127.415 85.1838L126.592 84.5685C125.772 84.2612 124.96 84.7158 124.569 85.0151C124.045 85.4164 123.585 85.8583 118.608 85.8234C114.913 85.7069 111.232 85.3182 107.595 84.6604C107.35 84.6022 104.737 83.8579 103.456 85.2419C102.175 86.6258 96.197 88.0098 94.6079 88.6204C93.0187 89.2309 95.1842 90.4754 94.4682 91.0511C93.7522 91.6268 92.2678 91.5279 91.7032 91.5279C91.1386 91.5279 88.3386 92.5804 86.2837 93.6911C84.2289 94.8018 83.0181 94.1737 81.7375 93.755C80.4569 93.3363 77.9596 94.4528 79.0831 95.4995C80.2065 96.5462 78.1051 98.1512 74.3098 99.5235C70.5144 100.896 67.6155 99.32 63.8318 99.1514C60.0481 98.9827 56.4856 100.297 55.042 100.5Z" fill="#D0D0D0" fill-opacity="0.44" shape-rendering="crispEdges"/>
</g>
<path d="M50.9291 36.968V40.064H51.9251V36.968H50.9291ZM54.2771 36.968V40.064H55.2611V36.968H54.2771ZM48.2171 39.8V40.628H58.0451V39.8H48.2171ZM49.0691 32.084V32.9H57.1211V32.084H49.0691ZM49.0931 36.428V37.232H57.1091V36.428H49.0931ZM50.7611 32.744V36.596H51.7571V32.744H50.7611ZM54.4571 32.744V36.596H55.4411V32.744H54.4571ZM64.8122 33.644V34.472H67.5482V33.644H64.8122ZM61.9682 31.748V33.08C61.9682 34.736 60.8762 36.272 59.2682 36.872L59.7842 37.664C61.5962 36.932 62.7722 35.18 62.7722 33.08V31.748H61.9682ZM62.1602 31.748V33.116C62.1602 35.048 63.3242 36.728 65.0522 37.4L65.5922 36.632C64.0202 36.056 62.9642 34.628 62.9642 33.116V31.748H62.1602ZM67.1762 31.1V39.212H68.1722V31.1H67.1762ZM61.2002 40.88V41.696H68.4362V40.88H61.2002ZM61.2002 38.312V41.264H62.1962V38.312H61.2002ZM75.4912 32.996V33.812H78.5272V32.996H75.4912ZM75.4912 35.312V36.14H78.5512V35.312H75.4912ZM70.7872 32.024V37.112H75.7432V32.024H70.7872ZM74.7592 32.828V36.308H71.7592V32.828H74.7592ZM78.2152 31.1V39.02H79.2112V31.1H78.2152ZM72.2392 40.88V41.696H79.4752V40.88H72.2392ZM72.2392 38.3V41.252H73.2352V38.3H72.2392Z" fill="black"/>
<defs>
<filter id="filter0_d_201_14853" x="0" y="0" width="131.415" height="110.193" filterUnits="userSpaceOnUse" color-interpolation-filters="sRGB">
<feFlood flood-opacity="0" result="BackgroundImageFix"/>
<feColorMatrix in="SourceAlpha" type="matrix" values="0 0 0 0 0 0 0 0 0 0 0 0 0 0 0 0 0 0 127 0" result="hardAlpha"/>
<feOffset dy="4"/>
<feGaussianBlur stdDeviation="2"/>
<feComposite in2="hardAlpha" operator="out"/>
<feColorMatrix type="matrix" values="0 0 0 0 0 0 0 0 0 0 0 0 0 0 0 0 0 0 0.25 0"/>
<feBlend mode="normal" in2="BackgroundImageFix" result="effect1_dropShadow_201_14853"/>
<feBlend mode="normal" in="SourceGraphic" in2="effect1_dropShadow_201_14853" result="shape"/>
</filter>
</defs>
</svg>
