<svg width="172" height="112" viewBox="0 0 172 112" fill="none" xmlns="http://www.w3.org/2000/svg">
<g filter="url(#filter0_d_201_14854)">
<path d="M164.564 13.5357L164.685 13.5606C167.514 14.1362 168.649 16.7239 166.507 17.1949C164.365 17.6659 165.651 16.8926 160.599 16.0785C155.546 15.2644 154.201 17.0263 153.799 17.4973C153.398 17.9683 152.653 20.0268 150.423 20.9398C148.194 21.8527 146.652 23.8531 146.57 25.2022C146.489 26.5513 147.088 26.9874 152.728 28.4062C158.369 29.8251 158.288 33.4071 156.355 34.5236C154.423 35.6401 151.704 35.3144 149.882 34.5236C148.06 33.7328 149.568 32.3953 149.655 31.9883C149.742 31.5812 149.248 30.4764 146.966 30.1333C144.684 29.7902 144.032 31.9185 143.892 32.6977C143.753 33.4769 143.229 35.4017 140.26 38.3731C137.291 41.3446 137.553 48.5726 138.286 49.8577C139.02 51.1428 139.061 51.4162 138.188 51.5499C137.314 51.6837 136.162 51.2417 135.277 52.3931C134.392 53.5445 130.201 54.8935 129.456 54.8935C128.711 54.8935 125.707 55.068 124.921 55.8123C124.135 56.5566 122.785 57.0858 120.032 57.5568C117.278 58.0278 114.729 58.8768 113.785 59.0105C113.308 59.0759 112.853 59.254 112.458 59.5301C112.064 59.8062 111.74 60.1723 111.515 60.598C110.962 61.5459 105.49 65.1512 104.105 66.006C102.72 66.8608 99.7393 69.9543 100.03 72.4025C100.321 74.8506 95.7169 76.0136 95.4666 76.0136C95.2163 76.0136 91.6887 76.7811 91.84 79.5025C91.9914 82.224 86.6186 83.5731 85.3146 83.5731C84.0107 83.5731 81.525 83.4858 81.8627 84.9919C82.2003 86.498 80.4831 86.3642 78.1604 86.7364C75.8378 87.1086 74.3244 88.4518 76.6761 88.6902C79.0279 88.9286 82.1362 88.0855 81.4144 91.8361C80.6926 95.5868 71.5885 99.8434 68.6081 100.012C65.6277 100.181 63.049 100.588 62.2049 101.262C61.3609 101.937 60.6333 102.611 56.7855 101.396C55.4651 101.006 54.0673 100.957 52.7226 101.253C51.3779 101.549 50.1302 102.18 49.096 103.088C48.4925 103.496 47.7646 103.679 47.0398 103.604C46.315 103.53 45.6395 103.203 45.1317 102.681L4 71.9663L20.2059 47.5724L36.3244 17.4973L67.3275 16.0988L98.3305 14.7003L130.65 0.579379C130.808 0.255208 131.198 0.0530156 131.976 0L130.65 0.579379C130.497 0.895227 130.564 1.32687 130.708 1.84915C130.999 2.90748 129.956 4.83809 133.909 4.26822C137.862 3.69835 138.024 4.73924 138.024 5.1114C138.024 5.48356 140.353 7.07104 140.353 7.07104L140.381 7.0925C141.333 7.83528 142.645 8.85882 146.116 8.52478C149.62 8.18751 149.993 9.37958 149.824 10.0774C149.655 10.7752 148.194 11.1648 147.414 11.9382C146.36 12.9849 146.436 14.7701 148.147 15.3516C150.202 16.0378 151.256 14.3049 152.42 13.5606C153.584 12.8162 153.043 11.3683 154.789 9.20513C156.536 7.04195 160.96 9.47262 161.192 11.1939C161.422 12.8902 161.844 12.9769 164.564 13.5357Z" fill="#D0D0D0" fill-opacity="0.44" shape-rendering="crispEdges"/>
</g>
<path d="M58.9411 49.7V50.816C58.9411 52.472 57.8611 53.924 56.2051 54.512L56.7211 55.328C58.5811 54.632 59.7691 52.916 59.7691 50.816V49.7H58.9411ZM59.1211 49.7V50.78C59.1211 52.748 60.2851 54.344 62.0371 55.004L62.5771 54.224C60.9931 53.672 59.9371 52.316 59.9371 50.78V49.7H59.1211ZM64.1371 49.088V55.508H65.1331V49.088H64.1371ZM61.5691 55.82C59.3251 55.82 57.9451 56.576 57.9451 57.872C57.9451 59.168 59.3251 59.912 61.5691 59.912C63.8011 59.912 65.1811 59.168 65.1811 57.872C65.1811 56.576 63.8011 55.82 61.5691 55.82ZM61.5691 56.612C63.2011 56.612 64.1971 57.08 64.1971 57.872C64.1971 58.664 63.2011 59.132 61.5691 59.132C59.9371 59.132 58.9411 58.664 58.9411 57.872C58.9411 57.08 59.9371 56.612 61.5691 56.612ZM61.7851 51.38V52.208H64.3531V51.38H61.7851ZM75.1402 49.1V57.044H76.1482V49.1H75.1402ZM69.1762 58.88V59.696H76.4722V58.88H69.1762ZM69.1762 56.312V59.264H70.1602V56.312H69.1762ZM70.0762 49.688V50.792C70.0762 52.472 68.9962 54.056 67.3642 54.692L67.8802 55.496C69.7042 54.752 70.9042 52.904 70.9042 50.792V49.688H70.0762ZM70.2562 49.688V50.792C70.2562 52.856 71.4562 54.596 73.2562 55.292L73.7842 54.488C72.1642 53.9 71.0722 52.424 71.0722 50.792V49.688H70.2562ZM83.1912 49.28C80.8272 49.28 79.3752 50.036 79.3752 51.296C79.3752 52.556 80.8272 53.3 83.1912 53.3C85.5432 53.3 87.0072 52.556 87.0072 51.296C87.0072 50.036 85.5432 49.28 83.1912 49.28ZM83.1912 50.06C84.9192 50.06 85.9872 50.516 85.9872 51.296C85.9872 52.076 84.9192 52.532 83.1912 52.532C81.4512 52.532 80.3952 52.076 80.3952 51.296C80.3952 50.516 81.4512 50.06 83.1912 50.06ZM79.5312 55.676V59.792H86.8392V55.676H85.8552V56.864H80.5152V55.676H79.5312ZM80.5152 57.632H85.8552V58.988H80.5152V57.632ZM78.2832 54.152V54.956H88.0872V54.152H78.2832Z" fill="black"/>
<defs>
<filter id="filter0_d_201_14854" x="0" y="0" width="171.62" height="111.621" filterUnits="userSpaceOnUse" color-interpolation-filters="sRGB">
<feFlood flood-opacity="0" result="BackgroundImageFix"/>
<feColorMatrix in="SourceAlpha" type="matrix" values="0 0 0 0 0 0 0 0 0 0 0 0 0 0 0 0 0 0 127 0" result="hardAlpha"/>
<feOffset dy="4"/>
<feGaussianBlur stdDeviation="2"/>
<feComposite in2="hardAlpha" operator="out"/>
<feColorMatrix type="matrix" values="0 0 0 0 0 0 0 0 0 0 0 0 0 0 0 0 0 0 0.25 0"/>
<feBlend mode="normal" in2="BackgroundImageFix" result="effect1_dropShadow_201_14854"/>
<feBlend mode="normal" in="SourceGraphic" in2="effect1_dropShadow_201_14854" result="shape"/>
</filter>
</defs>
</svg>
