<svg width="162" height="116" viewBox="0 0 162 116" fill="none" xmlns="http://www.w3.org/2000/svg">
<g filter="url(#filter0_d_201_14842)">
<path d="M102.537 3.56826C108.206 3.43451 107.252 2.78906 109.621 0.56192L126.403 21.9785L140.735 26.7991L157.342 40.412L152.027 52.4956L136.491 58.427L74.8516 81.9601L47.3005 98.1199C44.3201 99.8935 38.3535 96.9163 35.3673 98.7015C32.0202 100.655 31.1528 104.04 30.9316 107.819C29.9579 107.492 29.0229 107.059 28.1433 106.528C27.2702 105.9 27.4215 104.592 24.4469 104.458C21.4724 104.325 22.0079 103.702 22.2233 102.789C22.4387 101.876 19.8774 100.021 16.4837 98.7189C16.4837 98.7189 10.4996 94.5786 10.1795 92.9562C9.85932 91.3338 10.5171 91.014 6.98371 90.8803C3.45032 90.7465 4.91141 89.3975 5.19664 88.7171C5.8491 87.3355 6.13763 85.8103 6.03488 84.2861C5.91263 82.0531 9.47513 82.1869 10.4007 81.9601C11.3262 81.7333 12.636 80.6982 10.8605 79.7969C9.08512 78.8956 8.87556 78.1397 8.89885 77.7733C8.92213 77.407 8.89884 73.3772 9.95246 72.5398C11.0061 71.7025 11.0468 70.8883 9.84186 70.2138C8.6369 69.5393 8.56705 69.2602 8.76496 68.7252C8.96288 68.1902 8.89885 67.7366 8.21778 66.6551C7.53671 65.5735 8.29927 64.8524 8.47973 63.6371C8.66018 62.4217 7.43776 59.8283 8.07808 59.1363C8.71839 58.4443 10.2901 55.3798 14.5395 55.0658C17.6489 54.8982 20.6782 54.0188 23.3933 52.4956C24.9359 51.5535 24.3654 51.1465 23.7251 49.7509C23.0848 48.3553 24.9825 47.0062 26.5775 46.3724C28.1724 45.7386 31.6302 45.4943 33.4114 45.1571C35.4837 44.7616 54.181 40.7318 55.7818 34.9517C56.9635 30.6952 62.9068 30.2241 62.9068 30.2241C71.8829 29.9508 70.8234 26.7468 74.8516 25.9327C78.8798 25.1186 82.0232 23.5311 83.4203 21.9785C84.8173 20.4259 85.8011 19.6467 89.5731 18.9373C93.3452 18.2278 94.457 16.1752 97.0998 14.6516C99.7426 13.1281 98.753 12.0407 99.1139 11.1336C99.4748 10.2264 98.4154 8.23186 98.3513 7.11538C98.2873 5.99891 96.867 3.702 102.537 3.56826Z" fill="#D0D0D0" fill-opacity="0.44" shape-rendering="crispEdges"/>
</g>
<path d="M80.6331 49.1V57.236H81.6291V49.1H80.6331ZM81.3171 52.652V53.492H83.2371V52.652H81.3171ZM73.2411 50.408V51.212H79.6491V50.408H73.2411ZM76.4451 51.812C74.8971 51.812 73.8411 52.616 73.8411 53.84C73.8411 55.052 74.8971 55.856 76.4451 55.856C77.9811 55.856 79.0371 55.052 79.0371 53.84C79.0371 52.616 77.9811 51.812 76.4451 51.812ZM76.4451 52.592C77.4171 52.592 78.0891 53.084 78.0891 53.84C78.0891 54.584 77.4171 55.076 76.4451 55.076C75.4611 55.076 74.7891 54.584 74.7891 53.84C74.7891 53.084 75.4611 52.592 76.4451 52.592ZM75.9411 49.088V50.828H76.9371V49.088H75.9411ZM74.8731 58.88V59.696H82.1211V58.88H74.8731ZM74.8731 56.588V59.228H75.8691V56.588H74.8731ZM89.4402 51.08V51.896H92.3442V51.08H89.4402ZM89.3442 53.336V54.152H92.2722V53.336H89.3442ZM92.1762 49.088V55.592H93.1722V49.088H92.1762ZM88.7802 49.904V50.336C88.7802 52.388 87.1602 53.984 84.3882 54.788L84.7962 55.592C87.9162 54.656 89.8482 52.7 89.8482 49.904H88.7802ZM84.9522 49.904V50.72H89.4642V49.904H84.9522ZM89.6442 55.712C87.4482 55.712 86.0562 56.492 86.0562 57.8C86.0562 59.108 87.4482 59.888 89.6442 59.888C91.8402 59.888 93.2322 59.108 93.2322 57.8C93.2322 56.492 91.8402 55.712 89.6442 55.712ZM89.6442 56.492C91.2402 56.492 92.2602 56.984 92.2602 57.8C92.2602 58.616 91.2402 59.096 89.6442 59.096C88.0602 59.096 87.0402 58.616 87.0402 57.8C87.0402 56.984 88.0602 56.492 89.6442 56.492ZM100.491 50.996V51.812H103.527V50.996H100.491ZM100.491 53.312V54.14H103.551V53.312H100.491ZM95.7872 50.024V55.112H100.743V50.024H95.7872ZM99.7592 50.828V54.308H96.7592V50.828H99.7592ZM103.215 49.1V57.02H104.211V49.1H103.215ZM97.2392 58.88V59.696H104.475V58.88H97.2392ZM97.2392 56.3V59.252H98.2352V56.3H97.2392Z" fill="black"/>
<defs>
<filter id="filter0_d_201_14842" x="0.655518" y="0.56192" width="160.687" height="115.257" filterUnits="userSpaceOnUse" color-interpolation-filters="sRGB">
<feFlood flood-opacity="0" result="BackgroundImageFix"/>
<feColorMatrix in="SourceAlpha" type="matrix" values="0 0 0 0 0 0 0 0 0 0 0 0 0 0 0 0 0 0 127 0" result="hardAlpha"/>
<feOffset dy="4"/>
<feGaussianBlur stdDeviation="2"/>
<feComposite in2="hardAlpha" operator="out"/>
<feColorMatrix type="matrix" values="0 0 0 0 0 0 0 0 0 0 0 0 0 0 0 0 0 0 0.25 0"/>
<feBlend mode="normal" in2="BackgroundImageFix" result="effect1_dropShadow_201_14842"/>
<feBlend mode="normal" in="SourceGraphic" in2="effect1_dropShadow_201_14842" result="shape"/>
</filter>
</defs>
</svg>
