<svg width="160" height="88" viewBox="0 0 160 88" fill="none" xmlns="http://www.w3.org/2000/svg">
<g filter="url(#filter0_d_201_14843)">
<path d="M104.419 0.778495C108.197 1.08669 109.53 2.83699 109.483 3.65109L108.488 14.7025L107.492 25.7539L124.903 49.0254L153.007 61.9987L154.364 70.7706L155.72 79.5425H143.915H95.1779H46.4409L51.7557 67.459L35.1482 53.8461L20.8166 49.0254L4.03442 27.6089C6.4036 25.3817 12.0326 26.0621 13.7265 25.7539C15.4205 25.4457 19.0004 25.8934 20.8166 24.6723C22.6328 23.4511 26.7716 22.8522 30.3108 21.9683C33.85 21.0844 31.085 20.2412 33.6346 16.1533C36.1842 12.0654 43.3383 13.0772 46.4409 13.2807C49.5436 13.4842 52.9955 14.1181 57.8386 13.176C62.6817 12.234 62.3965 11.8677 65.7319 11.1815C69.0674 10.4953 69.3875 10.0359 71.7858 8.75081C74.1841 7.4657 74.8244 7.80297 77.0946 7.29707C79.3649 6.79116 79.3358 6.2853 83.6783 6.45393C85.9782 6.61879 88.2865 6.63044 90.5879 6.48882C92.9571 6.35508 93.8128 4.52916 96.3624 4.52916C98.912 4.52916 98.3882 2.8021 98.4173 2.33109C98.4464 1.86008 100.641 0.4703 104.419 0.778495Z" fill="#D0D0D0" fill-opacity="0.44" shape-rendering="crispEdges"/>
</g>
<path d="M75.6331 40.1V48.236H76.6291V40.1H75.6331ZM76.3171 43.652V44.492H78.2371V43.652H76.3171ZM68.2411 41.408V42.212H74.6491V41.408H68.2411ZM71.4451 42.812C69.8971 42.812 68.8411 43.616 68.8411 44.84C68.8411 46.052 69.8971 46.856 71.4451 46.856C72.9811 46.856 74.0371 46.052 74.0371 44.84C74.0371 43.616 72.9811 42.812 71.4451 42.812ZM71.4451 43.592C72.4171 43.592 73.0891 44.084 73.0891 44.84C73.0891 45.584 72.4171 46.076 71.4451 46.076C70.4611 46.076 69.7891 45.584 69.7891 44.84C69.7891 44.084 70.4611 43.592 71.4451 43.592ZM70.9411 40.088V41.828H71.9371V40.088H70.9411ZM69.8731 49.88V50.696H77.1211V49.88H69.8731ZM69.8731 47.588V50.228H70.8691V47.588H69.8731ZM87.1402 40.088V46.52H88.1482V40.088H87.1402ZM79.8082 45.188V46.016H80.6842C82.7002 46.016 84.1642 45.956 85.9522 45.656L85.8442 44.852C84.1042 45.128 82.6522 45.188 80.6842 45.188H79.8082ZM79.7842 40.736V41.552H83.7322V42.932H79.8082V45.68H80.7802V43.7H84.7042V40.736H79.7842ZM81.1402 47.12V50.792H88.1482V47.12H81.1402ZM87.1642 47.912V49.988H82.1122V47.912H87.1642ZM95.1912 40.28C92.8272 40.28 91.3752 41.036 91.3752 42.296C91.3752 43.556 92.8272 44.3 95.1912 44.3C97.5432 44.3 99.0072 43.556 99.0072 42.296C99.0072 41.036 97.5432 40.28 95.1912 40.28ZM95.1912 41.06C96.9192 41.06 97.9872 41.516 97.9872 42.296C97.9872 43.076 96.9192 43.532 95.1912 43.532C93.4512 43.532 92.3952 43.076 92.3952 42.296C92.3952 41.516 93.4512 41.06 95.1912 41.06ZM91.5312 46.676V50.792H98.8392V46.676H97.8552V47.864H92.5152V46.676H91.5312ZM92.5152 48.632H97.8552V49.988H92.5152V48.632ZM90.2832 45.152V45.956H100.087V45.152H90.2832Z" fill="black"/>
<defs>
<filter id="filter0_d_201_14843" x="0.0344238" y="0.734344" width="159.686" height="86.8082" filterUnits="userSpaceOnUse" color-interpolation-filters="sRGB">
<feFlood flood-opacity="0" result="BackgroundImageFix"/>
<feColorMatrix in="SourceAlpha" type="matrix" values="0 0 0 0 0 0 0 0 0 0 0 0 0 0 0 0 0 0 127 0" result="hardAlpha"/>
<feOffset dy="4"/>
<feGaussianBlur stdDeviation="2"/>
<feComposite in2="hardAlpha" operator="out"/>
<feColorMatrix type="matrix" values="0 0 0 0 0 0 0 0 0 0 0 0 0 0 0 0 0 0 0.25 0"/>
<feBlend mode="normal" in2="BackgroundImageFix" result="effect1_dropShadow_201_14843"/>
<feBlend mode="normal" in="SourceGraphic" in2="effect1_dropShadow_201_14843" result="shape"/>
</filter>
</defs>
</svg>
