<svg width="165" height="105" viewBox="0 0 165 105" fill="none" xmlns="http://www.w3.org/2000/svg">
<g filter="url(#filter0_d_201_14845)">
<path d="M86.6458 1.66257C94.4228 -0.395931 99.3298 1.55788 107.351 1.93004L105.483 30.0455L112.666 42.5187L130.595 62.749L160.498 75.8589L145.541 82.4139L130.583 88.9688L52.3656 96.3073L51.0094 87.5354L49.6531 78.7635L21.5489 65.7903L4.13794 42.5187L5.13335 31.4673L6.12877 20.4159C6.0822 21.23 6.41981 21.8697 7.69462 21.3289C8.96944 20.7881 10.1395 20.6136 12.1594 20.5148C14.1793 20.4159 15.262 20.0496 16.2341 18.1888C17.2063 16.328 22.1833 17.0374 25.9379 17.2409C29.6925 17.4444 28.4235 16.1884 30.2746 15.415C32.1257 14.6416 31.1943 16.6827 35.2458 15.5197C39.2972 14.3567 40.8282 14.7637 44.3384 14.3567C47.8485 13.9496 48.3898 13.1413 52.3656 13.2751C56.3414 13.4088 55.2296 12.2342 55.5032 11.7923C55.7768 11.3503 56.8304 9.26277 60.5733 9.12321C64.3163 8.98365 64.031 9.12899 67.8846 7.57058C71.7381 6.01216 72.6462 6.94839 76.9771 6.31456C81.3079 5.68072 78.8689 3.72108 86.6458 1.66257Z" fill="#D0D0D0" fill-opacity="0.44" shape-rendering="crispEdges"/>
</g>
<path d="M61.6531 44.988C60.2491 44.988 59.3491 46.44 59.3491 48.768C59.3491 51.096 60.2491 52.548 61.6531 52.548C63.0571 52.548 63.9691 51.096 63.9691 48.768C63.9691 46.44 63.0571 44.988 61.6531 44.988ZM61.6531 45.912C62.5051 45.912 63.0451 47.016 63.0451 48.768C63.0451 50.52 62.5051 51.624 61.6531 51.624C60.8011 51.624 60.2611 50.52 60.2611 48.768C60.2611 47.016 60.8011 45.912 61.6531 45.912ZM67.4731 44.088V54.936H68.4331V44.088H67.4731ZM65.7571 48.384V49.2H67.8331V48.384H65.7571ZM65.0731 44.316V54.396H66.0211V44.316H65.0731ZM73.1602 48.576V50.508H74.1562V48.576H73.1602ZM78.1402 44.088V50.472H79.1362V44.088H78.1402ZM70.3402 48.912C72.3682 48.912 74.9602 48.888 77.3362 48.54L77.2762 47.892C74.9602 48.156 72.3082 48.168 70.2202 48.168L70.3402 48.912ZM71.8642 50.868V51.588H78.1522V52.464H71.8882V54.348H72.8602V53.124H79.1362V50.868H71.8642ZM71.8882 54.096V54.816H79.4962V54.096H71.8882ZM75.9802 49.248V49.896H78.4522V49.248H75.9802ZM73.7242 44.292C72.1042 44.292 71.0482 44.916 71.0482 45.924C71.0482 46.932 72.1042 47.556 73.7242 47.556C75.3322 47.556 76.3882 46.932 76.3882 45.924C76.3882 44.916 75.3322 44.292 73.7242 44.292ZM73.7242 44.988C74.7682 44.988 75.4522 45.348 75.4522 45.924C75.4522 46.5 74.7682 46.86 73.7242 46.86C72.6562 46.86 71.9722 46.5 71.9722 45.924C71.9722 45.348 72.6562 44.988 73.7242 44.988ZM86.1912 44.28C83.8272 44.28 82.3752 45.036 82.3752 46.296C82.3752 47.556 83.8272 48.3 86.1912 48.3C88.5432 48.3 90.0072 47.556 90.0072 46.296C90.0072 45.036 88.5432 44.28 86.1912 44.28ZM86.1912 45.06C87.9192 45.06 88.9872 45.516 88.9872 46.296C88.9872 47.076 87.9192 47.532 86.1912 47.532C84.4512 47.532 83.3952 47.076 83.3952 46.296C83.3952 45.516 84.4512 45.06 86.1912 45.06ZM82.5312 50.676V54.792H89.8392V50.676H88.8552V51.864H83.5152V50.676H82.5312ZM83.5152 52.632H88.8552V53.988H83.5152V52.632ZM81.2832 49.152V49.956H91.0872V49.152H81.2832Z" fill="black"/>
<defs>
<filter id="filter0_d_201_14845" x="0.137939" y="0.734314" width="164.36" height="103.573" filterUnits="userSpaceOnUse" color-interpolation-filters="sRGB">
<feFlood flood-opacity="0" result="BackgroundImageFix"/>
<feColorMatrix in="SourceAlpha" type="matrix" values="0 0 0 0 0 0 0 0 0 0 0 0 0 0 0 0 0 0 127 0" result="hardAlpha"/>
<feOffset dy="4"/>
<feGaussianBlur stdDeviation="2"/>
<feComposite in2="hardAlpha" operator="out"/>
<feColorMatrix type="matrix" values="0 0 0 0 0 0 0 0 0 0 0 0 0 0 0 0 0 0 0.25 0"/>
<feBlend mode="normal" in2="BackgroundImageFix" result="effect1_dropShadow_201_14845"/>
<feBlend mode="normal" in="SourceGraphic" in2="effect1_dropShadow_201_14845" result="shape"/>
</filter>
</defs>
</svg>
