<svg width="122" height="96" viewBox="0 0 122 96" fill="none" xmlns="http://www.w3.org/2000/svg">
<g filter="url(#filter0_d_201_14846)">
<path d="M104.451 0.367929L104.511 0.369277L117.457 34.8987L89.5158 74.429L59.6013 87.5389L29.6985 74.429L11.7694 54.1986L4.58618 41.7255L6.45473 13.61C14.4762 13.9821 20.6523 13.3774 24.372 11.5515C28.0917 9.72558 37.3064 10.6385 41.1309 10.435C44.9553 10.2315 45.9042 9.49881 46.6377 8.61493C47.3711 7.73105 49.9207 7.86477 51.3527 8.8475C52.7847 9.83023 54.5426 9.12082 57.1738 8.20786C59.8049 7.29491 60.6315 7.59149 64.4618 8.06831C68.2921 8.54514 69.1303 7.56241 70.7311 6.14355C72.3319 4.7247 75.6674 4.04435 77.7164 3.10232C79.7654 2.1603 83.9566 2.79993 84.2011 2.9046C84.4456 3.00927 89.5099 4.65491 93.9339 2.42777C98.3027 0.228434 102.842 0.331415 104.451 0.367929Z" fill="#D0D0D0" fill-opacity="0.44" shape-rendering="crispEdges"/>
</g>
<path d="M52.4611 38.088V48.936H53.4211V38.088H52.4611ZM48.5131 41.976V42.804H50.5891V41.976H48.5131ZM50.2891 38.34V48.384H51.2251V38.34H50.2891ZM46.4251 39.768V41.148C46.4251 43.14 45.5851 45.12 44.0731 46.032L44.6851 46.776C46.2811 45.768 47.1931 43.524 47.1931 41.148V39.768H46.4251ZM46.6291 39.768V41.148C46.6291 43.416 47.5051 45.552 49.0891 46.512L49.7011 45.78C48.2131 44.916 47.3971 43.032 47.3971 41.148V39.768H46.6291ZM44.3731 39.348V40.176H49.3291V39.348H44.3731ZM59.6002 39.156V39.612C59.6002 41.04 57.7402 42.288 55.8322 42.564L56.2162 43.356C58.4002 42.984 60.4642 41.556 60.4642 39.612V39.156H59.6002ZM59.8522 39.156V39.612C59.8522 41.556 61.9042 42.984 64.1002 43.356L64.4722 42.564C62.5762 42.288 60.7042 41.04 60.7042 39.612V39.156H59.8522ZM59.6362 44.796V48.936H60.6202V44.796H59.6362ZM55.2562 44.268V45.084H65.0602V44.268H55.2562ZM56.1682 38.76V39.564H64.1122V38.76H56.1682ZM69.1512 39.024V40.968C69.1512 43.02 67.8432 45.096 66.2352 45.864L66.8472 46.68C68.6232 45.78 69.9672 43.464 69.9672 40.968V39.024H69.1512ZM69.3192 39.024V40.968C69.3192 43.38 70.6752 45.612 72.4392 46.476L73.0392 45.684C71.4312 44.94 70.1352 42.948 70.1352 40.968V39.024H69.3192ZM74.1672 38.076V48.948H75.1632V38.076H74.1672Z" fill="black"/>
<defs>
<filter id="filter0_d_201_14846" x="0.586182" y="0.35498" width="120.871" height="95.1839" filterUnits="userSpaceOnUse" color-interpolation-filters="sRGB">
<feFlood flood-opacity="0" result="BackgroundImageFix"/>
<feColorMatrix in="SourceAlpha" type="matrix" values="0 0 0 0 0 0 0 0 0 0 0 0 0 0 0 0 0 0 127 0" result="hardAlpha"/>
<feOffset dy="4"/>
<feGaussianBlur stdDeviation="2"/>
<feComposite in2="hardAlpha" operator="out"/>
<feColorMatrix type="matrix" values="0 0 0 0 0 0 0 0 0 0 0 0 0 0 0 0 0 0 0.25 0"/>
<feBlend mode="normal" in2="BackgroundImageFix" result="effect1_dropShadow_201_14846"/>
<feBlend mode="normal" in="SourceGraphic" in2="effect1_dropShadow_201_14846" result="shape"/>
</filter>
</defs>
</svg>
