<svg width="117" height="95" viewBox="0 0 117 95" fill="none" xmlns="http://www.w3.org/2000/svg">
<g filter="url(#filter0_d_201_14847)">
<path d="M81.9636 3.50695C81.9636 4.11171 84.3968 3.80932 87.2025 3.67557L112.897 32.4191V55.0743L91.19 73.502L47.7503 79.7734L4.31055 86.0449L32.2516 46.5146L25.7785 29.2499L19.3055 11.9852C21.2003 12.0207 23.0881 11.7457 24.8938 11.1711C26.8555 10.5314 27.2804 9.71736 28.9976 9.07771C30.7148 8.43807 32.4204 9.01373 33.1888 6.51329C33.9572 4.01284 35.7093 3.75699 38.777 3.50695C41.8447 3.2569 40.9192 5.08281 40.8551 5.25144C40.7911 5.42007 40.4477 5.79222 43.1196 5.92597C45.7914 6.05971 46.1057 8.17056 51.141 9.2347C56.1762 10.2988 58.1612 9.2347 59.2905 8.0717C60.4198 6.9087 66.4039 4.45477 69.6986 4.5827C72.9933 4.71063 74.1924 4.48968 75.834 2.96615C77.4755 1.44263 79.7632 0.564576 81.4222 0.971625C83.0812 1.37867 81.9636 2.90219 81.9636 3.50695Z" fill="#D0D0D0" fill-opacity="0.44" shape-rendering="crispEdges"/>
</g>
<path d="M57.2171 42.716V43.544H67.0451V42.716H57.2171ZM61.6331 40.088V42.992H62.6171V40.088H61.6331ZM61.6091 35.456V36.128C61.6091 37.844 59.5571 39.368 57.6851 39.68L58.0931 40.472C60.2291 40.028 62.4491 38.348 62.4491 36.128V35.456H61.6091ZM61.7891 35.456V36.128C61.7891 38.348 64.0211 40.004 66.1931 40.436L66.5891 39.644C64.6931 39.332 62.6291 37.844 62.6291 36.128V35.456H61.7891ZM58.0211 35.072V35.888H66.2171V35.072H58.0211ZM70.9562 36.128V36.668C70.9562 38.192 69.8882 39.536 68.2802 40.088L68.7722 40.868C70.5842 40.232 71.7722 38.624 71.7722 36.668V36.128H70.9562ZM71.1242 36.128V36.668C71.1242 38.54 72.3602 40.076 74.1722 40.676L74.6642 39.884C73.0562 39.38 71.9522 38.108 71.9522 36.668V36.128H71.1242ZM68.5562 35.54V36.344H74.3402V35.54H68.5562ZM70.9562 34.16V35.84H71.9522V34.16H70.9562ZM73.9802 37.424V38.252H76.7162V37.424H73.9802ZM76.1762 34.1V42.188H77.1722V34.1H76.1762ZM70.2482 43.88V44.696H77.4722V43.88H70.2482ZM70.2482 41.468V44.324H71.2442V41.468H70.2482ZM84.1912 34.28C81.8272 34.28 80.3752 35.036 80.3752 36.296C80.3752 37.556 81.8272 38.3 84.1912 38.3C86.5432 38.3 88.0072 37.556 88.0072 36.296C88.0072 35.036 86.5432 34.28 84.1912 34.28ZM84.1912 35.06C85.9192 35.06 86.9872 35.516 86.9872 36.296C86.9872 37.076 85.9192 37.532 84.1912 37.532C82.4512 37.532 81.3952 37.076 81.3952 36.296C81.3952 35.516 82.4512 35.06 84.1912 35.06ZM80.5312 40.676V44.792H87.8392V40.676H86.8552V41.864H81.5152V40.676H80.5312ZM81.5152 42.632H86.8552V43.988H81.5152V42.632ZM79.2832 39.152V39.956H89.0872V39.152H79.2832Z" fill="black"/>
<defs>
<filter id="filter0_d_201_14847" x="0.310547" y="0.872223" width="116.586" height="93.1727" filterUnits="userSpaceOnUse" color-interpolation-filters="sRGB">
<feFlood flood-opacity="0" result="BackgroundImageFix"/>
<feColorMatrix in="SourceAlpha" type="matrix" values="0 0 0 0 0 0 0 0 0 0 0 0 0 0 0 0 0 0 127 0" result="hardAlpha"/>
<feOffset dy="4"/>
<feGaussianBlur stdDeviation="2"/>
<feComposite in2="hardAlpha" operator="out"/>
<feColorMatrix type="matrix" values="0 0 0 0 0 0 0 0 0 0 0 0 0 0 0 0 0 0 0.25 0"/>
<feBlend mode="normal" in2="BackgroundImageFix" result="effect1_dropShadow_201_14847"/>
<feBlend mode="normal" in="SourceGraphic" in2="effect1_dropShadow_201_14847" result="shape"/>
</filter>
</defs>
</svg>
