<svg width="190" height="85" viewBox="0 0 190 85" fill="none" xmlns="http://www.w3.org/2000/svg">
<g filter="url(#filter0_d_201_14848)">
<path d="M184.104 44.2114C181.764 45.2232 177.118 44.3509 175.582 44.4556L141.936 59.1559L79.9297 61.9529L8.76126 76.4439L19.6147 67.23L30.4682 58.0162V35.361L4.7738 6.61746C7.42239 6.48953 17.3182 4.5764 20.2288 4.25658C20.1696 5.53514 19.7675 6.77434 19.0645 7.84445C17.8712 10.246 22.045 10.246 23.8379 10.8275C27.4178 12.0487 30.3982 8.50154 33.9782 9.66454C41.1381 12.6418 47.1047 10.8566 53.6709 6.68145C56.0575 4.29731 60.825 7.84445 63.8112 6.68145C66.4831 5.68127 67.1001 3.00053 67.0186 0C77.188 0.18608 78.2299 1.00603 81.8972 3.23317C85.5645 5.46031 88.1491 3.80884 90.4543 3.77395C92.7594 3.73906 94.4999 1.61077 100.269 1.94804C106.037 2.28531 107.12 2.8261 113.075 6.40813C119.03 9.99016 117.866 11.9033 118.651 13.264C119.437 14.6247 120.06 15.8633 122.93 16.753C125.8 17.6427 127.127 16.9972 128.058 17.3345C128.99 17.6718 128.355 17.9451 131.551 18.6196C134.747 19.2941 135.084 19.8349 134.671 20.5793C134.258 21.3236 134.153 21.9632 136.621 22.3703C139.089 22.7773 141.406 21.5387 141.738 21.0851C142.07 20.6316 143.356 18.8871 149.887 18.8871C156.419 18.8871 158.043 20.2943 158.747 20.6316C159.451 20.9689 159.958 21.1724 161.78 20.934C164.194 20.6599 166.635 21.1072 168.794 22.2191C171.414 23.5333 172.613 22.8297 174.324 23.4344C176.036 24.0392 176.792 25.3243 175.337 25.3243C173.882 25.3243 173.835 25.0917 174.173 26.7083C174.259 27.1802 174.192 27.6671 173.983 28.0988C173.774 28.5305 173.433 28.8846 173.009 29.1099C170.901 29.6739 171.949 30.8834 173.189 30.9997C174.429 31.116 174.761 30.9997 176.845 30.866L176.979 30.8573C178.941 30.7302 179.259 30.7097 182.584 32.8256C185.984 34.9888 184.721 36.71 184.692 37.2159C184.663 37.7218 183.76 38.1579 182.672 38.3789C181.583 38.5999 181.042 39.3675 181.263 40.6061C181.286 41.0555 181.466 41.4826 181.773 41.8123C182.079 42.142 182.492 42.3532 182.939 42.4087C183.784 42.5657 186.444 43.1996 184.104 44.2114Z" fill="#D0D0D0" fill-opacity="0.44" shape-rendering="crispEdges"/>
</g>
<path d="M68.4411 28.796V29.6H75.2211V28.796H68.4411ZM67.2171 33.452V34.268H77.0211V33.452H67.2171ZM71.5971 33.992V38.948H72.5931V33.992H71.5971ZM74.7531 28.796V29.732C74.7531 30.824 74.7531 32.084 74.3331 33.836L75.3171 33.968C75.7251 32.132 75.7251 30.86 75.7251 29.732V28.796H74.7531ZM81.0402 29.384V30.02C81.0402 31.496 79.9122 32.78 78.3042 33.296L78.7962 34.076C80.6082 33.476 81.8562 31.928 81.8562 30.02V29.384H81.0402ZM81.2202 29.384V30.02C81.2202 31.832 82.4322 33.32 84.2322 33.896L84.7002 33.116C83.1162 32.624 82.0362 31.4 82.0362 30.02V29.384H81.2202ZM78.6282 29.084V29.912H84.4362V29.084H78.6282ZM81.0402 33.62V36.14H82.0362V33.62H81.0402ZM86.2962 32.588V33.428H88.3002V32.588H86.2962ZM85.5882 28.088V38.936H86.5842V28.088H85.5882ZM78.2562 36.668C80.1282 36.68 82.6722 36.668 84.9882 36.26L84.9042 35.516C82.6722 35.84 80.0322 35.84 78.1242 35.84L78.2562 36.668ZM94.1912 28.28C91.8272 28.28 90.3752 29.036 90.3752 30.296C90.3752 31.556 91.8272 32.3 94.1912 32.3C96.5432 32.3 98.0072 31.556 98.0072 30.296C98.0072 29.036 96.5432 28.28 94.1912 28.28ZM94.1912 29.06C95.9192 29.06 96.9872 29.516 96.9872 30.296C96.9872 31.076 95.9192 31.532 94.1912 31.532C92.4512 31.532 91.3952 31.076 91.3952 30.296C91.3952 29.516 92.4512 29.06 94.1912 29.06ZM90.5312 34.676V38.792H97.8392V34.676H96.8552V35.864H91.5152V34.676H90.5312ZM91.5152 36.632H96.8552V37.988H91.5152V36.632ZM89.2832 33.152V33.956H99.0872V33.152H89.2832Z" fill="black"/>
<defs>
<filter id="filter0_d_201_14848" x="0.773804" y="0" width="188.271" height="84.4438" filterUnits="userSpaceOnUse" color-interpolation-filters="sRGB">
<feFlood flood-opacity="0" result="BackgroundImageFix"/>
<feColorMatrix in="SourceAlpha" type="matrix" values="0 0 0 0 0 0 0 0 0 0 0 0 0 0 0 0 0 0 127 0" result="hardAlpha"/>
<feOffset dy="4"/>
<feGaussianBlur stdDeviation="2"/>
<feComposite in2="hardAlpha" operator="out"/>
<feColorMatrix type="matrix" values="0 0 0 0 0 0 0 0 0 0 0 0 0 0 0 0 0 0 0.25 0"/>
<feBlend mode="normal" in2="BackgroundImageFix" result="effect1_dropShadow_201_14848"/>
<feBlend mode="normal" in="SourceGraphic" in2="effect1_dropShadow_201_14848" result="shape"/>
</filter>
</defs>
</svg>
