<svg width="142" height="90" viewBox="0 0 142 90" fill="none" xmlns="http://www.w3.org/2000/svg">
<g filter="url(#filter0_d_201_14849)">
<path d="M37.413 42.0771C26.0735 40.2745 15.9332 33.7326 4 39.6929L31.5512 23.5331L93.1909 0L124.118 31.2963L137.273 60.7549C135.591 59.7198 134.98 58.7661 131.644 59.0859C128.309 59.4058 126.813 59.4523 124.118 58.6847C121.423 57.9172 121.987 58.1381 119.042 58.9057C116.096 59.6733 114.461 57.8299 113.104 56.8821C111.748 55.9342 109.856 55.6784 107.376 56.9286C104.897 58.1788 105.677 57.6845 102.167 58.0916C98.6565 58.4986 94.3547 61.1677 92.1194 62.4645C89.8841 63.7612 90.4604 63.5228 87.4335 63.1797C84.4065 62.8366 82.2352 64.4881 82.1945 65.1626C82.1085 65.6977 81.9079 66.2078 81.6065 66.6584C81.3052 67.109 80.9101 67.4894 80.4482 67.7735C79.4178 68.355 78.1255 70.5008 77.6715 71.2625C77.2174 72.0243 77.7938 73.5536 74.3651 75.4493C70.9365 77.345 74.5631 77.659 75.7273 77.659C76.8915 77.659 79.5866 78.4266 77.753 79.9559C75.9194 81.4853 73.7423 81.7528 69.2659 80.363C64.7895 78.9732 61.6985 80.7177 61.6985 80.7177C61.6985 80.7177 54.7539 82.9332 50.0563 81.0375C45.3587 79.1418 46.8606 76.5309 47.4427 76.0832C47.8327 75.7924 48.2344 74.7108 47.5358 74.1875C49.5732 73.9374 51.727 73.9258 51.727 71.28C51.727 70.6694 50.5337 70.0879 49.3403 70.0879C50.5337 68.2969 49.9399 65.9128 51.727 64.7207C55.9065 63.5344 62.4669 64.1276 61.2735 59.9582C60.0802 53.9979 51.727 52.2068 45.1666 50.4216C40.9929 49.2295 40.3934 43.2401 37.413 42.0771Z" fill="#D0D0D0" fill-opacity="0.44" shape-rendering="crispEdges"/>
</g>
<path d="M80.4611 30.088V40.936H81.4211V30.088H80.4611ZM78.6251 34.432V35.26H80.7131V34.432H78.6251ZM78.0011 30.328V40.384H78.9371V30.328H78.0011ZM72.6011 37.432V38.26H73.3091C74.9411 38.26 76.0331 38.212 77.3291 37.936L77.2331 37.108C75.9731 37.372 74.8931 37.432 73.3091 37.432H72.6011ZM72.6011 31.408V37.804H73.5851V32.224H76.6331V31.408H72.6011ZM89.0402 32.896V33.724H91.4882V32.896H89.0402ZM91.1762 30.088V36.556H92.1722V30.088H91.1762ZM88.6082 36.88C86.3642 36.88 84.9842 37.636 84.9842 38.908C84.9842 40.192 86.3642 40.924 88.6082 40.924C90.8402 40.924 92.2202 40.192 92.2202 38.908C92.2202 37.636 90.8402 36.88 88.6082 36.88ZM88.6082 37.66C90.2402 37.66 91.2362 38.116 91.2362 38.908C91.2362 39.688 90.2402 40.144 88.6082 40.144C86.9762 40.144 85.9802 39.688 85.9802 38.908C85.9802 38.116 86.9762 37.66 88.6082 37.66ZM86.0162 31.18V32.056C86.0162 33.616 84.9002 35.068 83.2922 35.656L83.8082 36.448C85.6082 35.776 86.8322 34.06 86.8322 32.056V31.18H86.0162ZM86.2082 31.18V32.056C86.2082 33.88 87.3722 35.512 89.1362 36.148L89.6402 35.356C88.0682 34.804 87.0122 33.46 87.0122 32.056V31.18H86.2082ZM83.5922 30.88V31.696H89.3882V30.88H83.5922ZM99.1912 30.28C96.8272 30.28 95.3752 31.036 95.3752 32.296C95.3752 33.556 96.8272 34.3 99.1912 34.3C101.543 34.3 103.007 33.556 103.007 32.296C103.007 31.036 101.543 30.28 99.1912 30.28ZM99.1912 31.06C100.919 31.06 101.987 31.516 101.987 32.296C101.987 33.076 100.919 33.532 99.1912 33.532C97.4512 33.532 96.3952 33.076 96.3952 32.296C96.3952 31.516 97.4512 31.06 99.1912 31.06ZM95.5312 36.676V40.792H102.839V36.676H101.855V37.864H96.5152V36.676H95.5312ZM96.5152 38.632H101.855V39.988H96.5152V38.632ZM94.2832 35.152V35.956H104.087V35.152H94.2832Z" fill="black"/>
<defs>
<filter id="filter0_d_201_14849" x="0" y="0" width="141.273" height="89.8044" filterUnits="userSpaceOnUse" color-interpolation-filters="sRGB">
<feFlood flood-opacity="0" result="BackgroundImageFix"/>
<feColorMatrix in="SourceAlpha" type="matrix" values="0 0 0 0 0 0 0 0 0 0 0 0 0 0 0 0 0 0 127 0" result="hardAlpha"/>
<feOffset dy="4"/>
<feGaussianBlur stdDeviation="2"/>
<feComposite in2="hardAlpha" operator="out"/>
<feColorMatrix type="matrix" values="0 0 0 0 0 0 0 0 0 0 0 0 0 0 0 0 0 0 0.25 0"/>
<feBlend mode="normal" in2="BackgroundImageFix" result="effect1_dropShadow_201_14849"/>
<feBlend mode="normal" in="SourceGraphic" in2="effect1_dropShadow_201_14849" result="shape"/>
</filter>
</defs>
</svg>
