<svg width="122" height="78" viewBox="0 0 122 78" fill="none" xmlns="http://www.w3.org/2000/svg">
<g filter="url(#filter0_d_201_14850)">
<path d="M56.1067 69.0272C50.274 69.4924 50.0062 68.3177 48.3239 67.2827L35.1683 37.8241L4.24146 6.52782L19.7774 0.596375H68.5144H117.251V25.595L101.657 38.5975V64.4915C99.4259 63.1589 97.0804 62.0282 94.648 61.113C90.6664 59.6243 87.5521 60.3919 86.9409 60.8862C86.2064 61.4899 85.2711 61.7951 84.3215 61.741C83.1572 61.7003 81.277 61.299 80.8288 61.9212C80.3806 62.5434 80.27 62.9912 77.5748 63.6657C74.8797 64.3403 75.4792 63.9856 71.4685 65.922C67.4578 67.8584 67.1842 66.9164 64.1689 67.3641C61.1536 67.8119 61.9394 68.562 56.1067 69.0272Z" fill="#D0D0D0" fill-opacity="0.44" shape-rendering="crispEdges"/>
</g>
<path d="M61.6331 22.076V30.068H62.6291V22.076H61.6331ZM62.3171 25.376V26.204H64.2371V25.376H62.3171ZM55.8731 31.88V32.696H63.1211V31.88H55.8731ZM55.8731 29.252V32.204H56.8691V29.252H55.8731ZM57.2411 22.844C55.6211 22.844 54.4091 23.96 54.4091 25.52C54.4091 27.092 55.6211 28.196 57.2411 28.196C58.8611 28.196 60.0731 27.092 60.0731 25.52C60.0731 23.96 58.8611 22.844 57.2411 22.844ZM57.2411 23.72C58.2971 23.72 59.1011 24.464 59.1011 25.52C59.1011 26.588 58.2971 27.32 57.2411 27.32C56.1851 27.32 55.3811 26.588 55.3811 25.52C55.3811 24.464 56.1851 23.72 57.2411 23.72ZM65.8442 27.248V28.076H66.6482C68.8082 28.076 70.0442 28.004 71.4842 27.716L71.3642 26.912C69.9722 27.2 68.7722 27.248 66.6482 27.248H65.8442ZM65.8442 22.844V27.512H66.8162V23.648H70.7762V22.844H65.8442ZM66.9362 29.132V29.948H73.1762V32.936H74.1722V29.132H66.9362ZM73.1762 22.088V28.58H74.1722V22.088H73.1762ZM70.1402 24.896V25.7H73.4522V24.896H70.1402ZM81.4912 23.996V24.812H84.5272V23.996H81.4912ZM81.4912 26.312V27.14H84.5512V26.312H81.4912ZM76.7872 23.024V28.112H81.7432V23.024H76.7872ZM80.7592 23.828V27.308H77.7592V23.828H80.7592ZM84.2152 22.1V30.02H85.2112V22.1H84.2152ZM78.2392 31.88V32.696H85.4752V31.88H78.2392ZM78.2392 29.3V32.252H79.2352V29.3H78.2392Z" fill="black"/>
<defs>
<filter id="filter0_d_201_14850" x="0.241455" y="0.596375" width="121.01" height="76.5356" filterUnits="userSpaceOnUse" color-interpolation-filters="sRGB">
<feFlood flood-opacity="0" result="BackgroundImageFix"/>
<feColorMatrix in="SourceAlpha" type="matrix" values="0 0 0 0 0 0 0 0 0 0 0 0 0 0 0 0 0 0 127 0" result="hardAlpha"/>
<feOffset dy="4"/>
<feGaussianBlur stdDeviation="2"/>
<feComposite in2="hardAlpha" operator="out"/>
<feColorMatrix type="matrix" values="0 0 0 0 0 0 0 0 0 0 0 0 0 0 0 0 0 0 0.25 0"/>
<feBlend mode="normal" in2="BackgroundImageFix" result="effect1_dropShadow_201_14850"/>
<feBlend mode="normal" in="SourceGraphic" in2="effect1_dropShadow_201_14850" result="shape"/>
</filter>
</defs>
</svg>
