<svg width="159" height="93" viewBox="0 0 159 93" fill="none" xmlns="http://www.w3.org/2000/svg">
<g filter="url(#filter0_d_201_14851)">
<path d="M7.77206 78.5968C5.16422 78.6433 4 77.7886 4 77.7886V51.8945L19.5948 38.8921V13.8935H31.3999L109.618 6.55495L124.575 0L151.652 35.8159L154.335 76.8523C151.832 77.0791 148.333 75.8638 146.337 74.6019C145.461 74.062 144.487 73.7002 143.471 73.5376C142.456 73.3749 141.417 73.4145 140.417 73.6541C138.783 73.9971 137.082 73.8244 135.55 73.1598C134.182 72.5725 133.344 71.8107 130.893 73.5203C128.443 75.2299 125.8 75.0962 125.072 74.7357C124.345 74.3751 123.466 73.8285 122.709 75.4102C121.952 76.9919 121.137 76.8058 119.1 76.1313C117.063 75.4567 114.944 76.3115 114.688 76.358C111.326 77.3795 107.828 77.8795 104.314 77.8409C98.5923 77.7536 99.5936 77.1663 93.8016 75.951C88.0097 74.7357 84.517 77.3059 84.517 77.3059C83.5195 77.9241 82.4601 78.4366 81.3561 78.8353C79.7495 79.3761 77.1011 79.2423 73.7889 79.1027C71.7074 78.9519 69.623 79.3531 67.7466 80.2657C67.083 80.6263 66.7686 81.3415 64.1724 80.3529C61.5762 79.3644 60.3654 80.2657 58.8287 80.9868C57.2919 81.7079 54.4745 83.1384 51.6688 82.8302C48.863 82.522 48.083 83.1034 48.083 83.1034C48.083 83.1034 46.3542 84.3188 44.7767 84.3188C43.1992 84.3188 42.9139 83.5047 42.9139 83.5047C42.9139 83.5047 42.4948 82.1091 38.4841 81.2077C34.4734 80.3064 38.1814 79.3586 34.0543 77.5152C29.9271 75.6719 23.9663 76.8872 23.716 76.9337C23.4657 76.9802 19.682 77.8351 17.8483 79.4109C16.0147 80.9868 11.3869 80.4867 11.1716 79.9924C10.9562 79.4982 10.3799 78.5503 7.77206 78.5968Z" fill="#D0D0D0" fill-opacity="0.44" shape-rendering="crispEdges"/>
</g>
<path d="M67.3198 42.76V43.576H70.3438V42.76H67.3198ZM64.7038 40.024V41.956C64.7038 43.972 63.4798 46.06 61.8838 46.852L62.5198 47.644C64.2358 46.72 65.5198 44.392 65.5198 41.956V40.024H64.7038ZM64.8958 40.024V41.956C64.8958 44.332 66.1558 46.564 67.9078 47.452L68.4958 46.648C66.9238 45.904 65.6998 43.936 65.6998 41.956V40.024H64.8958ZM69.8518 39.076V49.948H70.8358V39.076H69.8518ZM75.8869 44.788V49.312H76.8949V44.788H75.8869ZM80.9269 39.088V49.936H81.9109V39.088H80.9269ZM73.0069 45.1C75.1549 45.088 77.7949 45.04 80.2309 44.704L80.1469 43.96C77.7589 44.212 75.0709 44.248 72.8749 44.26L73.0069 45.1ZM73.8229 39.916V40.744H78.3109V39.916H73.8229ZM77.9269 39.916V40.36C77.9269 41.104 77.9269 42.412 77.5669 44.32L78.5509 44.404C78.9109 42.472 78.9109 41.116 78.9109 40.36V39.916H77.9269ZM83.9859 47.764V48.592H93.8139V47.764H83.9859ZM88.3659 44.956V48.136H89.3619V44.956H88.3659ZM84.8379 40.12V40.936H92.8899V40.12H84.8379ZM84.8619 44.488V45.292H92.8779V44.488H84.8619ZM86.5299 40.78V44.632H87.5259V40.78H86.5299ZM90.2259 40.78V44.632H91.2099V40.78H90.2259ZM97.881 40.024V41.968C97.881 44.02 96.573 46.096 94.965 46.864L95.577 47.68C97.353 46.78 98.697 44.464 98.697 41.968V40.024H97.881ZM98.049 40.024V41.968C98.049 44.38 99.405 46.612 101.169 47.476L101.769 46.684C100.161 45.94 98.865 43.948 98.865 41.968V40.024H98.049ZM102.897 39.076V49.948H103.893V39.076H102.897Z" fill="black"/>
<defs>
<filter id="filter0_d_201_14851" x="0" y="0" width="158.335" height="92.3188" filterUnits="userSpaceOnUse" color-interpolation-filters="sRGB">
<feFlood flood-opacity="0" result="BackgroundImageFix"/>
<feColorMatrix in="SourceAlpha" type="matrix" values="0 0 0 0 0 0 0 0 0 0 0 0 0 0 0 0 0 0 127 0" result="hardAlpha"/>
<feOffset dy="4"/>
<feGaussianBlur stdDeviation="2"/>
<feComposite in2="hardAlpha" operator="out"/>
<feColorMatrix type="matrix" values="0 0 0 0 0 0 0 0 0 0 0 0 0 0 0 0 0 0 0.25 0"/>
<feBlend mode="normal" in2="BackgroundImageFix" result="effect1_dropShadow_201_14851"/>
<feBlend mode="normal" in="SourceGraphic" in2="effect1_dropShadow_201_14851" result="shape"/>
</filter>
</defs>
</svg>
